<?xml version="1.0" standalone="no"?>
<svg xmlns="http://www.w3.org/2000/svg" width="256" height="256" xmlns:xlink="http://www.w3.org/1999/xlink" viewBox="0 0 256 256"><defs><clipPath id="clip-path-background-color-0"><rect x="0" y="0" width="256" height="256"/></clipPath><clipPath id="clip-path-dot-color-0"><rect x="75" y="12" width="7" height="7" transform="rotate(0,78.5,15.5)"/><rect x="82" y="12" width="7" height="7" transform="rotate(0,85.5,15.5)"/><rect x="96" y="12" width="7" height="7" transform="rotate(0,99.5,15.5)"/><rect x="110" y="12" width="7" height="7" transform="rotate(0,113.5,15.5)"/><rect x="131" y="12" width="7" height="7" transform="rotate(0,134.5,15.5)"/><rect x="145" y="12" width="7" height="7" transform="rotate(0,148.5,15.5)"/><rect x="166" y="12" width="7" height="7" transform="rotate(0,169.5,15.5)"/><rect x="173" y="12" width="7" height="7" transform="rotate(0,176.5,15.5)"/><rect x="68" y="19" width="7" height="7" transform="rotate(0,71.5,22.5)"/><rect x="82" y="19" width="7" height="7" transform="rotate(0,85.5,22.5)"/><rect x="96" y="19" width="7" height="7" transform="rotate(0,99.5,22.5)"/><rect x="117" y="19" width="7" height="7" transform="rotate(0,120.5,22.5)"/><rect x="131" y="19" width="7" height="7" transform="rotate(0,134.5,22.5)"/><rect x="138" y="19" width="7" height="7" transform="rotate(0,141.5,22.5)"/><rect x="152" y="19" width="7" height="7" transform="rotate(0,155.5,22.5)"/><rect x="173" y="19" width="7" height="7" transform="rotate(0,176.5,22.5)"/><rect x="180" y="19" width="7" height="7" transform="rotate(0,183.5,22.5)"/><rect x="68" y="26" width="7" height="7" transform="rotate(0,71.5,29.5)"/><rect x="89" y="26" width="7" height="7" transform="rotate(0,92.5,29.5)"/><rect x="110" y="26" width="7" height="7" transform="rotate(0,113.5,29.5)"/><rect x="117" y="26" width="7" height="7" transform="rotate(0,120.5,29.5)"/><rect x="124" y="26" width="7" height="7" transform="rotate(0,127.5,29.5)"/><rect x="138" y="26" width="7" height="7" transform="rotate(0,141.5,29.5)"/><rect x="166" y="26" width="7" height="7" transform="rotate(0,169.5,29.5)"/><rect x="89" y="33" width="7" height="7" transform="rotate(0,92.5,36.5)"/><rect x="117" y="33" width="7" height="7" transform="rotate(0,120.5,36.5)"/><rect x="124" y="33" width="7" height="7" transform="rotate(0,127.5,36.5)"/><rect x="131" y="33" width="7" height="7" transform="rotate(0,134.5,36.5)"/><rect x="138" y="33" width="7" height="7" transform="rotate(0,141.5,36.5)"/><rect x="152" y="33" width="7" height="7" transform="rotate(0,155.5,36.5)"/><rect x="173" y="33" width="7" height="7" transform="rotate(0,176.5,36.5)"/><rect x="75" y="40" width="7" height="7" transform="rotate(0,78.5,43.5)"/><rect x="82" y="40" width="7" height="7" transform="rotate(0,85.5,43.5)"/><rect x="89" y="40" width="7" height="7" transform="rotate(0,92.5,43.5)"/><rect x="103" y="40" width="7" height="7" transform="rotate(0,106.5,43.5)"/><rect x="138" y="40" width="7" height="7" transform="rotate(0,141.5,43.5)"/><rect x="145" y="40" width="7" height="7" transform="rotate(0,148.5,43.5)"/><rect x="152" y="40" width="7" height="7" transform="rotate(0,155.5,43.5)"/><rect x="166" y="40" width="7" height="7" transform="rotate(0,169.5,43.5)"/><rect x="75" y="47" width="7" height="7" transform="rotate(0,78.5,50.5)"/><rect x="89" y="47" width="7" height="7" transform="rotate(0,92.5,50.5)"/><rect x="96" y="47" width="7" height="7" transform="rotate(0,99.5,50.5)"/><rect x="110" y="47" width="7" height="7" transform="rotate(0,113.5,50.5)"/><rect x="124" y="47" width="7" height="7" transform="rotate(0,127.5,50.5)"/><rect x="145" y="47" width="7" height="7" transform="rotate(0,148.5,50.5)"/><rect x="166" y="47" width="7" height="7" transform="rotate(0,169.5,50.5)"/><rect x="180" y="47" width="7" height="7" transform="rotate(0,183.5,50.5)"/><rect x="68" y="54" width="7" height="7" transform="rotate(0,71.5,57.5)"/><rect x="82" y="54" width="7" height="7" transform="rotate(0,85.5,57.5)"/><rect x="96" y="54" width="7" height="7" transform="rotate(0,99.5,57.5)"/><rect x="110" y="54" width="7" height="7" transform="rotate(0,113.5,57.5)"/><rect x="124" y="54" width="7" height="7" transform="rotate(0,127.5,57.5)"/><rect x="138" y="54" width="7" height="7" transform="rotate(0,141.5,57.5)"/><rect x="152" y="54" width="7" height="7" transform="rotate(0,155.5,57.5)"/><rect x="166" y="54" width="7" height="7" transform="rotate(0,169.5,57.5)"/><rect x="180" y="54" width="7" height="7" transform="rotate(0,183.5,57.5)"/><rect x="82" y="61" width="7" height="7" transform="rotate(0,85.5,64.5)"/><rect x="89" y="61" width="7" height="7" transform="rotate(0,92.5,64.5)"/><rect x="96" y="61" width="7" height="7" transform="rotate(0,99.5,64.5)"/><rect x="110" y="61" width="7" height="7" transform="rotate(0,113.5,64.5)"/><rect x="117" y="61" width="7" height="7" transform="rotate(0,120.5,64.5)"/><rect x="131" y="61" width="7" height="7" transform="rotate(0,134.5,64.5)"/><rect x="145" y="61" width="7" height="7" transform="rotate(0,148.5,64.5)"/><rect x="180" y="61" width="7" height="7" transform="rotate(0,183.5,64.5)"/><rect x="19" y="68" width="7" height="7" transform="rotate(0,22.5,71.5)"/><rect x="26" y="68" width="7" height="7" transform="rotate(0,29.5,71.5)"/><rect x="33" y="68" width="7" height="7" transform="rotate(0,36.5,71.5)"/><rect x="47" y="68" width="7" height="7" transform="rotate(0,50.5,71.5)"/><rect x="54" y="68" width="7" height="7" transform="rotate(0,57.5,71.5)"/><rect x="75" y="68" width="7" height="7" transform="rotate(0,78.5,71.5)"/><rect x="89" y="68" width="7" height="7" transform="rotate(0,92.5,71.5)"/><rect x="96" y="68" width="7" height="7" transform="rotate(0,99.5,71.5)"/><rect x="110" y="68" width="7" height="7" transform="rotate(0,113.5,71.5)"/><rect x="117" y="68" width="7" height="7" transform="rotate(0,120.5,71.5)"/><rect x="124" y="68" width="7" height="7" transform="rotate(0,127.5,71.5)"/><rect x="131" y="68" width="7" height="7" transform="rotate(0,134.5,71.5)"/><rect x="145" y="68" width="7" height="7" transform="rotate(0,148.5,71.5)"/><rect x="152" y="68" width="7" height="7" transform="rotate(0,155.5,71.5)"/><rect x="159" y="68" width="7" height="7" transform="rotate(0,162.5,71.5)"/><rect x="222" y="68" width="7" height="7" transform="rotate(0,225.5,71.5)"/><rect x="229" y="68" width="7" height="7" transform="rotate(0,232.5,71.5)"/><rect x="12" y="75" width="7" height="7" transform="rotate(0,15.5,78.5)"/><rect x="26" y="75" width="7" height="7" transform="rotate(0,29.5,78.5)"/><rect x="33" y="75" width="7" height="7" transform="rotate(0,36.5,78.5)"/><rect x="40" y="75" width="7" height="7" transform="rotate(0,43.5,78.5)"/><rect x="68" y="75" width="7" height="7" transform="rotate(0,71.5,78.5)"/><rect x="75" y="75" width="7" height="7" transform="rotate(0,78.5,78.5)"/><rect x="82" y="75" width="7" height="7" transform="rotate(0,85.5,78.5)"/><rect x="96" y="75" width="7" height="7" transform="rotate(0,99.5,78.5)"/><rect x="110" y="75" width="7" height="7" transform="rotate(0,113.5,78.5)"/><rect x="117" y="75" width="7" height="7" transform="rotate(0,120.5,78.5)"/><rect x="124" y="75" width="7" height="7" transform="rotate(0,127.5,78.5)"/><rect x="138" y="75" width="7" height="7" transform="rotate(0,141.5,78.5)"/><rect x="145" y="75" width="7" height="7" transform="rotate(0,148.5,78.5)"/><rect x="159" y="75" width="7" height="7" transform="rotate(0,162.5,78.5)"/><rect x="166" y="75" width="7" height="7" transform="rotate(0,169.5,78.5)"/><rect x="173" y="75" width="7" height="7" transform="rotate(0,176.5,78.5)"/><rect x="194" y="75" width="7" height="7" transform="rotate(0,197.5,78.5)"/><rect x="201" y="75" width="7" height="7" transform="rotate(0,204.5,78.5)"/><rect x="215" y="75" width="7" height="7" transform="rotate(0,218.5,78.5)"/><rect x="222" y="75" width="7" height="7" transform="rotate(0,225.5,78.5)"/><rect x="229" y="75" width="7" height="7" transform="rotate(0,232.5,78.5)"/><rect x="236" y="75" width="7" height="7" transform="rotate(0,239.5,78.5)"/><rect x="19" y="82" width="7" height="7" transform="rotate(0,22.5,85.5)"/><rect x="26" y="82" width="7" height="7" transform="rotate(0,29.5,85.5)"/><rect x="54" y="82" width="7" height="7" transform="rotate(0,57.5,85.5)"/><rect x="61" y="82" width="7" height="7" transform="rotate(0,64.5,85.5)"/><rect x="68" y="82" width="7" height="7" transform="rotate(0,71.5,85.5)"/><rect x="96" y="82" width="7" height="7" transform="rotate(0,99.5,85.5)"/><rect x="103" y="82" width="7" height="7" transform="rotate(0,106.5,85.5)"/><rect x="131" y="82" width="7" height="7" transform="rotate(0,134.5,85.5)"/><rect x="173" y="82" width="7" height="7" transform="rotate(0,176.5,85.5)"/><rect x="194" y="82" width="7" height="7" transform="rotate(0,197.5,85.5)"/><rect x="201" y="82" width="7" height="7" transform="rotate(0,204.5,85.5)"/><rect x="208" y="82" width="7" height="7" transform="rotate(0,211.5,85.5)"/><rect x="215" y="82" width="7" height="7" transform="rotate(0,218.5,85.5)"/><rect x="236" y="82" width="7" height="7" transform="rotate(0,239.5,85.5)"/><rect x="33" y="89" width="7" height="7" transform="rotate(0,36.5,92.5)"/><rect x="40" y="89" width="7" height="7" transform="rotate(0,43.5,92.5)"/><rect x="68" y="89" width="7" height="7" transform="rotate(0,71.5,92.5)"/><rect x="82" y="89" width="7" height="7" transform="rotate(0,85.5,92.5)"/><rect x="103" y="89" width="7" height="7" transform="rotate(0,106.5,92.5)"/><rect x="117" y="89" width="7" height="7" transform="rotate(0,120.5,92.5)"/><rect x="138" y="89" width="7" height="7" transform="rotate(0,141.5,92.5)"/><rect x="152" y="89" width="7" height="7" transform="rotate(0,155.5,92.5)"/><rect x="173" y="89" width="7" height="7" transform="rotate(0,176.5,92.5)"/><rect x="180" y="89" width="7" height="7" transform="rotate(0,183.5,92.5)"/><rect x="201" y="89" width="7" height="7" transform="rotate(0,204.5,92.5)"/><rect x="215" y="89" width="7" height="7" transform="rotate(0,218.5,92.5)"/><rect x="236" y="89" width="7" height="7" transform="rotate(0,239.5,92.5)"/><rect x="19" y="96" width="7" height="7" transform="rotate(0,22.5,99.5)"/><rect x="26" y="96" width="7" height="7" transform="rotate(0,29.5,99.5)"/><rect x="40" y="96" width="7" height="7" transform="rotate(0,43.5,99.5)"/><rect x="54" y="96" width="7" height="7" transform="rotate(0,57.5,99.5)"/><rect x="68" y="96" width="7" height="7" transform="rotate(0,71.5,99.5)"/><rect x="82" y="96" width="7" height="7" transform="rotate(0,85.5,99.5)"/><rect x="96" y="96" width="7" height="7" transform="rotate(0,99.5,99.5)"/><rect x="110" y="96" width="7" height="7" transform="rotate(0,113.5,99.5)"/><rect x="124" y="96" width="7" height="7" transform="rotate(0,127.5,99.5)"/><rect x="138" y="96" width="7" height="7" transform="rotate(0,141.5,99.5)"/><rect x="145" y="96" width="7" height="7" transform="rotate(0,148.5,99.5)"/><rect x="152" y="96" width="7" height="7" transform="rotate(0,155.5,99.5)"/><rect x="208" y="96" width="7" height="7" transform="rotate(0,211.5,99.5)"/><rect x="215" y="96" width="7" height="7" transform="rotate(0,218.5,99.5)"/><rect x="229" y="96" width="7" height="7" transform="rotate(0,232.5,99.5)"/><rect x="236" y="96" width="7" height="7" transform="rotate(0,239.5,99.5)"/><rect x="12" y="103" width="7" height="7" transform="rotate(0,15.5,106.5)"/><rect x="26" y="103" width="7" height="7" transform="rotate(0,29.5,106.5)"/><rect x="33" y="103" width="7" height="7" transform="rotate(0,36.5,106.5)"/><rect x="40" y="103" width="7" height="7" transform="rotate(0,43.5,106.5)"/><rect x="61" y="103" width="7" height="7" transform="rotate(0,64.5,106.5)"/><rect x="103" y="103" width="7" height="7" transform="rotate(0,106.5,106.5)"/><rect x="117" y="103" width="7" height="7" transform="rotate(0,120.5,106.5)"/><rect x="131" y="103" width="7" height="7" transform="rotate(0,134.5,106.5)"/><rect x="145" y="103" width="7" height="7" transform="rotate(0,148.5,106.5)"/><rect x="166" y="103" width="7" height="7" transform="rotate(0,169.5,106.5)"/><rect x="215" y="103" width="7" height="7" transform="rotate(0,218.5,106.5)"/><rect x="229" y="103" width="7" height="7" transform="rotate(0,232.5,106.5)"/><rect x="19" y="110" width="7" height="7" transform="rotate(0,22.5,113.5)"/><rect x="33" y="110" width="7" height="7" transform="rotate(0,36.5,113.5)"/><rect x="47" y="110" width="7" height="7" transform="rotate(0,50.5,113.5)"/><rect x="54" y="110" width="7" height="7" transform="rotate(0,57.5,113.5)"/><rect x="68" y="110" width="7" height="7" transform="rotate(0,71.5,113.5)"/><rect x="75" y="110" width="7" height="7" transform="rotate(0,78.5,113.5)"/><rect x="82" y="110" width="7" height="7" transform="rotate(0,85.5,113.5)"/><rect x="96" y="110" width="7" height="7" transform="rotate(0,99.5,113.5)"/><rect x="117" y="110" width="7" height="7" transform="rotate(0,120.5,113.5)"/><rect x="124" y="110" width="7" height="7" transform="rotate(0,127.5,113.5)"/><rect x="131" y="110" width="7" height="7" transform="rotate(0,134.5,113.5)"/><rect x="145" y="110" width="7" height="7" transform="rotate(0,148.5,113.5)"/><rect x="152" y="110" width="7" height="7" transform="rotate(0,155.5,113.5)"/><rect x="166" y="110" width="7" height="7" transform="rotate(0,169.5,113.5)"/><rect x="180" y="110" width="7" height="7" transform="rotate(0,183.5,113.5)"/><rect x="194" y="110" width="7" height="7" transform="rotate(0,197.5,113.5)"/><rect x="201" y="110" width="7" height="7" transform="rotate(0,204.5,113.5)"/><rect x="19" y="117" width="7" height="7" transform="rotate(0,22.5,120.5)"/><rect x="26" y="117" width="7" height="7" transform="rotate(0,29.5,120.5)"/><rect x="40" y="117" width="7" height="7" transform="rotate(0,43.5,120.5)"/><rect x="61" y="117" width="7" height="7" transform="rotate(0,64.5,120.5)"/><rect x="103" y="117" width="7" height="7" transform="rotate(0,106.5,120.5)"/><rect x="110" y="117" width="7" height="7" transform="rotate(0,113.5,120.5)"/><rect x="131" y="117" width="7" height="7" transform="rotate(0,134.5,120.5)"/><rect x="138" y="117" width="7" height="7" transform="rotate(0,141.5,120.5)"/><rect x="145" y="117" width="7" height="7" transform="rotate(0,148.5,120.5)"/><rect x="152" y="117" width="7" height="7" transform="rotate(0,155.5,120.5)"/><rect x="159" y="117" width="7" height="7" transform="rotate(0,162.5,120.5)"/><rect x="180" y="117" width="7" height="7" transform="rotate(0,183.5,120.5)"/><rect x="187" y="117" width="7" height="7" transform="rotate(0,190.5,120.5)"/><rect x="194" y="117" width="7" height="7" transform="rotate(0,197.5,120.5)"/><rect x="201" y="117" width="7" height="7" transform="rotate(0,204.5,120.5)"/><rect x="222" y="117" width="7" height="7" transform="rotate(0,225.5,120.5)"/><rect x="19" y="124" width="7" height="7" transform="rotate(0,22.5,127.5)"/><rect x="26" y="124" width="7" height="7" transform="rotate(0,29.5,127.5)"/><rect x="40" y="124" width="7" height="7" transform="rotate(0,43.5,127.5)"/><rect x="54" y="124" width="7" height="7" transform="rotate(0,57.5,127.5)"/><rect x="61" y="124" width="7" height="7" transform="rotate(0,64.5,127.5)"/><rect x="75" y="124" width="7" height="7" transform="rotate(0,78.5,127.5)"/><rect x="82" y="124" width="7" height="7" transform="rotate(0,85.5,127.5)"/><rect x="96" y="124" width="7" height="7" transform="rotate(0,99.5,127.5)"/><rect x="103" y="124" width="7" height="7" transform="rotate(0,106.5,127.5)"/><rect x="110" y="124" width="7" height="7" transform="rotate(0,113.5,127.5)"/><rect x="117" y="124" width="7" height="7" transform="rotate(0,120.5,127.5)"/><rect x="131" y="124" width="7" height="7" transform="rotate(0,134.5,127.5)"/><rect x="145" y="124" width="7" height="7" transform="rotate(0,148.5,127.5)"/><rect x="152" y="124" width="7" height="7" transform="rotate(0,155.5,127.5)"/><rect x="159" y="124" width="7" height="7" transform="rotate(0,162.5,127.5)"/><rect x="166" y="124" width="7" height="7" transform="rotate(0,169.5,127.5)"/><rect x="180" y="124" width="7" height="7" transform="rotate(0,183.5,127.5)"/><rect x="187" y="124" width="7" height="7" transform="rotate(0,190.5,127.5)"/><rect x="194" y="124" width="7" height="7" transform="rotate(0,197.5,127.5)"/><rect x="208" y="124" width="7" height="7" transform="rotate(0,211.5,127.5)"/><rect x="222" y="124" width="7" height="7" transform="rotate(0,225.5,127.5)"/><rect x="12" y="131" width="7" height="7" transform="rotate(0,15.5,134.5)"/><rect x="47" y="131" width="7" height="7" transform="rotate(0,50.5,134.5)"/><rect x="68" y="131" width="7" height="7" transform="rotate(0,71.5,134.5)"/><rect x="89" y="131" width="7" height="7" transform="rotate(0,92.5,134.5)"/><rect x="103" y="131" width="7" height="7" transform="rotate(0,106.5,134.5)"/><rect x="110" y="131" width="7" height="7" transform="rotate(0,113.5,134.5)"/><rect x="117" y="131" width="7" height="7" transform="rotate(0,120.5,134.5)"/><rect x="124" y="131" width="7" height="7" transform="rotate(0,127.5,134.5)"/><rect x="138" y="131" width="7" height="7" transform="rotate(0,141.5,134.5)"/><rect x="159" y="131" width="7" height="7" transform="rotate(0,162.5,134.5)"/><rect x="173" y="131" width="7" height="7" transform="rotate(0,176.5,134.5)"/><rect x="180" y="131" width="7" height="7" transform="rotate(0,183.5,134.5)"/><rect x="194" y="131" width="7" height="7" transform="rotate(0,197.5,134.5)"/><rect x="208" y="131" width="7" height="7" transform="rotate(0,211.5,134.5)"/><rect x="215" y="131" width="7" height="7" transform="rotate(0,218.5,134.5)"/><rect x="229" y="131" width="7" height="7" transform="rotate(0,232.5,134.5)"/><rect x="236" y="131" width="7" height="7" transform="rotate(0,239.5,134.5)"/><rect x="12" y="138" width="7" height="7" transform="rotate(0,15.5,141.5)"/><rect x="26" y="138" width="7" height="7" transform="rotate(0,29.5,141.5)"/><rect x="40" y="138" width="7" height="7" transform="rotate(0,43.5,141.5)"/><rect x="47" y="138" width="7" height="7" transform="rotate(0,50.5,141.5)"/><rect x="54" y="138" width="7" height="7" transform="rotate(0,57.5,141.5)"/><rect x="61" y="138" width="7" height="7" transform="rotate(0,64.5,141.5)"/><rect x="89" y="138" width="7" height="7" transform="rotate(0,92.5,141.5)"/><rect x="96" y="138" width="7" height="7" transform="rotate(0,99.5,141.5)"/><rect x="103" y="138" width="7" height="7" transform="rotate(0,106.5,141.5)"/><rect x="124" y="138" width="7" height="7" transform="rotate(0,127.5,141.5)"/><rect x="131" y="138" width="7" height="7" transform="rotate(0,134.5,141.5)"/><rect x="152" y="138" width="7" height="7" transform="rotate(0,155.5,141.5)"/><rect x="159" y="138" width="7" height="7" transform="rotate(0,162.5,141.5)"/><rect x="180" y="138" width="7" height="7" transform="rotate(0,183.5,141.5)"/><rect x="187" y="138" width="7" height="7" transform="rotate(0,190.5,141.5)"/><rect x="194" y="138" width="7" height="7" transform="rotate(0,197.5,141.5)"/><rect x="201" y="138" width="7" height="7" transform="rotate(0,204.5,141.5)"/><rect x="208" y="138" width="7" height="7" transform="rotate(0,211.5,141.5)"/><rect x="222" y="138" width="7" height="7" transform="rotate(0,225.5,141.5)"/><rect x="12" y="145" width="7" height="7" transform="rotate(0,15.5,148.5)"/><rect x="19" y="145" width="7" height="7" transform="rotate(0,22.5,148.5)"/><rect x="26" y="145" width="7" height="7" transform="rotate(0,29.5,148.5)"/><rect x="40" y="145" width="7" height="7" transform="rotate(0,43.5,148.5)"/><rect x="47" y="145" width="7" height="7" transform="rotate(0,50.5,148.5)"/><rect x="61" y="145" width="7" height="7" transform="rotate(0,64.5,148.5)"/><rect x="68" y="145" width="7" height="7" transform="rotate(0,71.5,148.5)"/><rect x="75" y="145" width="7" height="7" transform="rotate(0,78.5,148.5)"/><rect x="82" y="145" width="7" height="7" transform="rotate(0,85.5,148.5)"/><rect x="110" y="145" width="7" height="7" transform="rotate(0,113.5,148.5)"/><rect x="131" y="145" width="7" height="7" transform="rotate(0,134.5,148.5)"/><rect x="138" y="145" width="7" height="7" transform="rotate(0,141.5,148.5)"/><rect x="145" y="145" width="7" height="7" transform="rotate(0,148.5,148.5)"/><rect x="180" y="145" width="7" height="7" transform="rotate(0,183.5,148.5)"/><rect x="187" y="145" width="7" height="7" transform="rotate(0,190.5,148.5)"/><rect x="208" y="145" width="7" height="7" transform="rotate(0,211.5,148.5)"/><rect x="26" y="152" width="7" height="7" transform="rotate(0,29.5,155.5)"/><rect x="47" y="152" width="7" height="7" transform="rotate(0,50.5,155.5)"/><rect x="54" y="152" width="7" height="7" transform="rotate(0,57.5,155.5)"/><rect x="68" y="152" width="7" height="7" transform="rotate(0,71.5,155.5)"/><rect x="75" y="152" width="7" height="7" transform="rotate(0,78.5,155.5)"/><rect x="110" y="152" width="7" height="7" transform="rotate(0,113.5,155.5)"/><rect x="117" y="152" width="7" height="7" transform="rotate(0,120.5,155.5)"/><rect x="124" y="152" width="7" height="7" transform="rotate(0,127.5,155.5)"/><rect x="138" y="152" width="7" height="7" transform="rotate(0,141.5,155.5)"/><rect x="152" y="152" width="7" height="7" transform="rotate(0,155.5,155.5)"/><rect x="159" y="152" width="7" height="7" transform="rotate(0,162.5,155.5)"/><rect x="166" y="152" width="7" height="7" transform="rotate(0,169.5,155.5)"/><rect x="173" y="152" width="7" height="7" transform="rotate(0,176.5,155.5)"/><rect x="180" y="152" width="7" height="7" transform="rotate(0,183.5,155.5)"/><rect x="187" y="152" width="7" height="7" transform="rotate(0,190.5,155.5)"/><rect x="201" y="152" width="7" height="7" transform="rotate(0,204.5,155.5)"/><rect x="215" y="152" width="7" height="7" transform="rotate(0,218.5,155.5)"/><rect x="222" y="152" width="7" height="7" transform="rotate(0,225.5,155.5)"/><rect x="229" y="152" width="7" height="7" transform="rotate(0,232.5,155.5)"/><rect x="12" y="159" width="7" height="7" transform="rotate(0,15.5,162.5)"/><rect x="19" y="159" width="7" height="7" transform="rotate(0,22.5,162.5)"/><rect x="40" y="159" width="7" height="7" transform="rotate(0,43.5,162.5)"/><rect x="68" y="159" width="7" height="7" transform="rotate(0,71.5,162.5)"/><rect x="103" y="159" width="7" height="7" transform="rotate(0,106.5,162.5)"/><rect x="110" y="159" width="7" height="7" transform="rotate(0,113.5,162.5)"/><rect x="138" y="159" width="7" height="7" transform="rotate(0,141.5,162.5)"/><rect x="145" y="159" width="7" height="7" transform="rotate(0,148.5,162.5)"/><rect x="159" y="159" width="7" height="7" transform="rotate(0,162.5,162.5)"/><rect x="166" y="159" width="7" height="7" transform="rotate(0,169.5,162.5)"/><rect x="173" y="159" width="7" height="7" transform="rotate(0,176.5,162.5)"/><rect x="180" y="159" width="7" height="7" transform="rotate(0,183.5,162.5)"/><rect x="187" y="159" width="7" height="7" transform="rotate(0,190.5,162.5)"/><rect x="194" y="159" width="7" height="7" transform="rotate(0,197.5,162.5)"/><rect x="201" y="159" width="7" height="7" transform="rotate(0,204.5,162.5)"/><rect x="222" y="159" width="7" height="7" transform="rotate(0,225.5,162.5)"/><rect x="236" y="159" width="7" height="7" transform="rotate(0,239.5,162.5)"/><rect x="26" y="166" width="7" height="7" transform="rotate(0,29.5,169.5)"/><rect x="54" y="166" width="7" height="7" transform="rotate(0,57.5,169.5)"/><rect x="61" y="166" width="7" height="7" transform="rotate(0,64.5,169.5)"/><rect x="75" y="166" width="7" height="7" transform="rotate(0,78.5,169.5)"/><rect x="89" y="166" width="7" height="7" transform="rotate(0,92.5,169.5)"/><rect x="103" y="166" width="7" height="7" transform="rotate(0,106.5,169.5)"/><rect x="110" y="166" width="7" height="7" transform="rotate(0,113.5,169.5)"/><rect x="117" y="166" width="7" height="7" transform="rotate(0,120.5,169.5)"/><rect x="131" y="166" width="7" height="7" transform="rotate(0,134.5,169.5)"/><rect x="138" y="166" width="7" height="7" transform="rotate(0,141.5,169.5)"/><rect x="159" y="166" width="7" height="7" transform="rotate(0,162.5,169.5)"/><rect x="173" y="166" width="7" height="7" transform="rotate(0,176.5,169.5)"/><rect x="180" y="166" width="7" height="7" transform="rotate(0,183.5,169.5)"/><rect x="194" y="166" width="7" height="7" transform="rotate(0,197.5,169.5)"/><rect x="229" y="166" width="7" height="7" transform="rotate(0,232.5,169.5)"/><rect x="236" y="166" width="7" height="7" transform="rotate(0,239.5,169.5)"/><rect x="19" y="173" width="7" height="7" transform="rotate(0,22.5,176.5)"/><rect x="33" y="173" width="7" height="7" transform="rotate(0,36.5,176.5)"/><rect x="40" y="173" width="7" height="7" transform="rotate(0,43.5,176.5)"/><rect x="61" y="173" width="7" height="7" transform="rotate(0,64.5,176.5)"/><rect x="68" y="173" width="7" height="7" transform="rotate(0,71.5,176.5)"/><rect x="82" y="173" width="7" height="7" transform="rotate(0,85.5,176.5)"/><rect x="89" y="173" width="7" height="7" transform="rotate(0,92.5,176.5)"/><rect x="96" y="173" width="7" height="7" transform="rotate(0,99.5,176.5)"/><rect x="103" y="173" width="7" height="7" transform="rotate(0,106.5,176.5)"/><rect x="110" y="173" width="7" height="7" transform="rotate(0,113.5,176.5)"/><rect x="124" y="173" width="7" height="7" transform="rotate(0,127.5,176.5)"/><rect x="145" y="173" width="7" height="7" transform="rotate(0,148.5,176.5)"/><rect x="173" y="173" width="7" height="7" transform="rotate(0,176.5,176.5)"/><rect x="180" y="173" width="7" height="7" transform="rotate(0,183.5,176.5)"/><rect x="208" y="173" width="7" height="7" transform="rotate(0,211.5,176.5)"/><rect x="229" y="173" width="7" height="7" transform="rotate(0,232.5,176.5)"/><rect x="236" y="173" width="7" height="7" transform="rotate(0,239.5,176.5)"/><rect x="12" y="180" width="7" height="7" transform="rotate(0,15.5,183.5)"/><rect x="26" y="180" width="7" height="7" transform="rotate(0,29.5,183.5)"/><rect x="47" y="180" width="7" height="7" transform="rotate(0,50.5,183.5)"/><rect x="54" y="180" width="7" height="7" transform="rotate(0,57.5,183.5)"/><rect x="68" y="180" width="7" height="7" transform="rotate(0,71.5,183.5)"/><rect x="75" y="180" width="7" height="7" transform="rotate(0,78.5,183.5)"/><rect x="82" y="180" width="7" height="7" transform="rotate(0,85.5,183.5)"/><rect x="89" y="180" width="7" height="7" transform="rotate(0,92.5,183.5)"/><rect x="103" y="180" width="7" height="7" transform="rotate(0,106.5,183.5)"/><rect x="110" y="180" width="7" height="7" transform="rotate(0,113.5,183.5)"/><rect x="131" y="180" width="7" height="7" transform="rotate(0,134.5,183.5)"/><rect x="180" y="180" width="7" height="7" transform="rotate(0,183.5,183.5)"/><rect x="187" y="180" width="7" height="7" transform="rotate(0,190.5,183.5)"/><rect x="194" y="180" width="7" height="7" transform="rotate(0,197.5,183.5)"/><rect x="201" y="180" width="7" height="7" transform="rotate(0,204.5,183.5)"/><rect x="208" y="180" width="7" height="7" transform="rotate(0,211.5,183.5)"/><rect x="229" y="180" width="7" height="7" transform="rotate(0,232.5,183.5)"/><rect x="236" y="180" width="7" height="7" transform="rotate(0,239.5,183.5)"/><rect x="68" y="187" width="7" height="7" transform="rotate(0,71.5,190.5)"/><rect x="75" y="187" width="7" height="7" transform="rotate(0,78.5,190.5)"/><rect x="82" y="187" width="7" height="7" transform="rotate(0,85.5,190.5)"/><rect x="103" y="187" width="7" height="7" transform="rotate(0,106.5,190.5)"/><rect x="117" y="187" width="7" height="7" transform="rotate(0,120.5,190.5)"/><rect x="131" y="187" width="7" height="7" transform="rotate(0,134.5,190.5)"/><rect x="138" y="187" width="7" height="7" transform="rotate(0,141.5,190.5)"/><rect x="145" y="187" width="7" height="7" transform="rotate(0,148.5,190.5)"/><rect x="173" y="187" width="7" height="7" transform="rotate(0,176.5,190.5)"/><rect x="180" y="187" width="7" height="7" transform="rotate(0,183.5,190.5)"/><rect x="208" y="187" width="7" height="7" transform="rotate(0,211.5,190.5)"/><rect x="215" y="187" width="7" height="7" transform="rotate(0,218.5,190.5)"/><rect x="229" y="187" width="7" height="7" transform="rotate(0,232.5,190.5)"/><rect x="75" y="194" width="7" height="7" transform="rotate(0,78.5,197.5)"/><rect x="89" y="194" width="7" height="7" transform="rotate(0,92.5,197.5)"/><rect x="96" y="194" width="7" height="7" transform="rotate(0,99.5,197.5)"/><rect x="117" y="194" width="7" height="7" transform="rotate(0,120.5,197.5)"/><rect x="145" y="194" width="7" height="7" transform="rotate(0,148.5,197.5)"/><rect x="166" y="194" width="7" height="7" transform="rotate(0,169.5,197.5)"/><rect x="173" y="194" width="7" height="7" transform="rotate(0,176.5,197.5)"/><rect x="180" y="194" width="7" height="7" transform="rotate(0,183.5,197.5)"/><rect x="194" y="194" width="7" height="7" transform="rotate(0,197.5,197.5)"/><rect x="208" y="194" width="7" height="7" transform="rotate(0,211.5,197.5)"/><rect x="229" y="194" width="7" height="7" transform="rotate(0,232.5,197.5)"/><rect x="68" y="201" width="7" height="7" transform="rotate(0,71.5,204.5)"/><rect x="89" y="201" width="7" height="7" transform="rotate(0,92.5,204.5)"/><rect x="110" y="201" width="7" height="7" transform="rotate(0,113.5,204.5)"/><rect x="117" y="201" width="7" height="7" transform="rotate(0,120.5,204.5)"/><rect x="124" y="201" width="7" height="7" transform="rotate(0,127.5,204.5)"/><rect x="145" y="201" width="7" height="7" transform="rotate(0,148.5,204.5)"/><rect x="152" y="201" width="7" height="7" transform="rotate(0,155.5,204.5)"/><rect x="159" y="201" width="7" height="7" transform="rotate(0,162.5,204.5)"/><rect x="166" y="201" width="7" height="7" transform="rotate(0,169.5,204.5)"/><rect x="180" y="201" width="7" height="7" transform="rotate(0,183.5,204.5)"/><rect x="208" y="201" width="7" height="7" transform="rotate(0,211.5,204.5)"/><rect x="215" y="201" width="7" height="7" transform="rotate(0,218.5,204.5)"/><rect x="222" y="201" width="7" height="7" transform="rotate(0,225.5,204.5)"/><rect x="229" y="201" width="7" height="7" transform="rotate(0,232.5,204.5)"/><rect x="236" y="201" width="7" height="7" transform="rotate(0,239.5,204.5)"/><rect x="82" y="208" width="7" height="7" transform="rotate(0,85.5,211.5)"/><rect x="103" y="208" width="7" height="7" transform="rotate(0,106.5,211.5)"/><rect x="117" y="208" width="7" height="7" transform="rotate(0,120.5,211.5)"/><rect x="124" y="208" width="7" height="7" transform="rotate(0,127.5,211.5)"/><rect x="138" y="208" width="7" height="7" transform="rotate(0,141.5,211.5)"/><rect x="145" y="208" width="7" height="7" transform="rotate(0,148.5,211.5)"/><rect x="159" y="208" width="7" height="7" transform="rotate(0,162.5,211.5)"/><rect x="173" y="208" width="7" height="7" transform="rotate(0,176.5,211.5)"/><rect x="180" y="208" width="7" height="7" transform="rotate(0,183.5,211.5)"/><rect x="187" y="208" width="7" height="7" transform="rotate(0,190.5,211.5)"/><rect x="194" y="208" width="7" height="7" transform="rotate(0,197.5,211.5)"/><rect x="201" y="208" width="7" height="7" transform="rotate(0,204.5,211.5)"/><rect x="208" y="208" width="7" height="7" transform="rotate(0,211.5,211.5)"/><rect x="222" y="208" width="7" height="7" transform="rotate(0,225.5,211.5)"/><rect x="229" y="208" width="7" height="7" transform="rotate(0,232.5,211.5)"/><rect x="68" y="215" width="7" height="7" transform="rotate(0,71.5,218.5)"/><rect x="75" y="215" width="7" height="7" transform="rotate(0,78.5,218.5)"/><rect x="103" y="215" width="7" height="7" transform="rotate(0,106.5,218.5)"/><rect x="131" y="215" width="7" height="7" transform="rotate(0,134.5,218.5)"/><rect x="159" y="215" width="7" height="7" transform="rotate(0,162.5,218.5)"/><rect x="180" y="215" width="7" height="7" transform="rotate(0,183.5,218.5)"/><rect x="201" y="215" width="7" height="7" transform="rotate(0,204.5,218.5)"/><rect x="215" y="215" width="7" height="7" transform="rotate(0,218.5,218.5)"/><rect x="222" y="215" width="7" height="7" transform="rotate(0,225.5,218.5)"/><rect x="229" y="215" width="7" height="7" transform="rotate(0,232.5,218.5)"/><rect x="236" y="215" width="7" height="7" transform="rotate(0,239.5,218.5)"/><rect x="68" y="222" width="7" height="7" transform="rotate(0,71.5,225.5)"/><rect x="89" y="222" width="7" height="7" transform="rotate(0,92.5,225.5)"/><rect x="110" y="222" width="7" height="7" transform="rotate(0,113.5,225.5)"/><rect x="166" y="222" width="7" height="7" transform="rotate(0,169.5,225.5)"/><rect x="180" y="222" width="7" height="7" transform="rotate(0,183.5,225.5)"/><rect x="187" y="222" width="7" height="7" transform="rotate(0,190.5,225.5)"/><rect x="194" y="222" width="7" height="7" transform="rotate(0,197.5,225.5)"/><rect x="201" y="222" width="7" height="7" transform="rotate(0,204.5,225.5)"/><rect x="215" y="222" width="7" height="7" transform="rotate(0,218.5,225.5)"/><rect x="68" y="229" width="7" height="7" transform="rotate(0,71.5,232.5)"/><rect x="89" y="229" width="7" height="7" transform="rotate(0,92.5,232.5)"/><rect x="103" y="229" width="7" height="7" transform="rotate(0,106.5,232.5)"/><rect x="124" y="229" width="7" height="7" transform="rotate(0,127.5,232.5)"/><rect x="131" y="229" width="7" height="7" transform="rotate(0,134.5,232.5)"/><rect x="138" y="229" width="7" height="7" transform="rotate(0,141.5,232.5)"/><rect x="180" y="229" width="7" height="7" transform="rotate(0,183.5,232.5)"/><rect x="187" y="229" width="7" height="7" transform="rotate(0,190.5,232.5)"/><rect x="194" y="229" width="7" height="7" transform="rotate(0,197.5,232.5)"/><rect x="201" y="229" width="7" height="7" transform="rotate(0,204.5,232.5)"/><rect x="208" y="229" width="7" height="7" transform="rotate(0,211.5,232.5)"/><rect x="215" y="229" width="7" height="7" transform="rotate(0,218.5,232.5)"/><rect x="236" y="229" width="7" height="7" transform="rotate(0,239.5,232.5)"/><rect x="75" y="236" width="7" height="7" transform="rotate(0,78.5,239.5)"/><rect x="82" y="236" width="7" height="7" transform="rotate(0,85.5,239.5)"/><rect x="89" y="236" width="7" height="7" transform="rotate(0,92.5,239.5)"/><rect x="110" y="236" width="7" height="7" transform="rotate(0,113.5,239.5)"/><rect x="117" y="236" width="7" height="7" transform="rotate(0,120.5,239.5)"/><rect x="138" y="236" width="7" height="7" transform="rotate(0,141.5,239.5)"/><rect x="145" y="236" width="7" height="7" transform="rotate(0,148.5,239.5)"/><rect x="159" y="236" width="7" height="7" transform="rotate(0,162.5,239.5)"/><rect x="187" y="236" width="7" height="7" transform="rotate(0,190.5,239.5)"/><rect x="208" y="236" width="7" height="7" transform="rotate(0,211.5,239.5)"/><rect x="215" y="236" width="7" height="7" transform="rotate(0,218.5,239.5)"/><rect x="222" y="236" width="7" height="7" transform="rotate(0,225.5,239.5)"/><rect x="12" y="12" width="7" height="7" transform="rotate(0,15.5,15.5)"/><rect x="19" y="12" width="7" height="7" transform="rotate(0,22.5,15.5)"/><rect x="26" y="12" width="7" height="7" transform="rotate(0,29.5,15.5)"/><rect x="33" y="12" width="7" height="7" transform="rotate(0,36.5,15.5)"/><rect x="40" y="12" width="7" height="7" transform="rotate(0,43.5,15.5)"/><rect x="47" y="12" width="7" height="7" transform="rotate(0,50.5,15.5)"/><rect x="54" y="12" width="7" height="7" transform="rotate(0,57.5,15.5)"/><rect x="12" y="19" width="7" height="7" transform="rotate(0,15.5,22.5)"/><rect x="54" y="19" width="7" height="7" transform="rotate(0,57.5,22.5)"/><rect x="12" y="26" width="7" height="7" transform="rotate(0,15.5,29.5)"/><rect x="54" y="26" width="7" height="7" transform="rotate(0,57.5,29.5)"/><rect x="12" y="33" width="7" height="7" transform="rotate(0,15.5,36.5)"/><rect x="54" y="33" width="7" height="7" transform="rotate(0,57.5,36.5)"/><rect x="12" y="40" width="7" height="7" transform="rotate(0,15.5,43.5)"/><rect x="54" y="40" width="7" height="7" transform="rotate(0,57.5,43.5)"/><rect x="12" y="47" width="7" height="7" transform="rotate(0,15.5,50.5)"/><rect x="54" y="47" width="7" height="7" transform="rotate(0,57.5,50.5)"/><rect x="12" y="54" width="7" height="7" transform="rotate(0,15.5,57.5)"/><rect x="19" y="54" width="7" height="7" transform="rotate(0,22.5,57.5)"/><rect x="26" y="54" width="7" height="7" transform="rotate(0,29.5,57.5)"/><rect x="33" y="54" width="7" height="7" transform="rotate(0,36.5,57.5)"/><rect x="40" y="54" width="7" height="7" transform="rotate(0,43.5,57.5)"/><rect x="47" y="54" width="7" height="7" transform="rotate(0,50.5,57.5)"/><rect x="54" y="54" width="7" height="7" transform="rotate(0,57.5,57.5)"/><rect x="26" y="26" width="7" height="7" transform="rotate(0,29.5,29.5)"/><rect x="33" y="26" width="7" height="7" transform="rotate(0,36.5,29.5)"/><rect x="40" y="26" width="7" height="7" transform="rotate(0,43.5,29.5)"/><rect x="26" y="33" width="7" height="7" transform="rotate(0,29.5,36.5)"/><rect x="33" y="33" width="7" height="7" transform="rotate(0,36.5,36.5)"/><rect x="40" y="33" width="7" height="7" transform="rotate(0,43.5,36.5)"/><rect x="26" y="40" width="7" height="7" transform="rotate(0,29.5,43.5)"/><rect x="33" y="40" width="7" height="7" transform="rotate(0,36.5,43.5)"/><rect x="40" y="40" width="7" height="7" transform="rotate(0,43.5,43.5)"/><rect x="194" y="12" width="7" height="7" transform="rotate(0,197.5,15.5)"/><rect x="201" y="12" width="7" height="7" transform="rotate(0,204.5,15.5)"/><rect x="208" y="12" width="7" height="7" transform="rotate(0,211.5,15.5)"/><rect x="215" y="12" width="7" height="7" transform="rotate(0,218.5,15.5)"/><rect x="222" y="12" width="7" height="7" transform="rotate(0,225.5,15.5)"/><rect x="229" y="12" width="7" height="7" transform="rotate(0,232.5,15.5)"/><rect x="236" y="12" width="7" height="7" transform="rotate(0,239.5,15.5)"/><rect x="194" y="19" width="7" height="7" transform="rotate(0,197.5,22.5)"/><rect x="236" y="19" width="7" height="7" transform="rotate(0,239.5,22.5)"/><rect x="194" y="26" width="7" height="7" transform="rotate(0,197.5,29.5)"/><rect x="236" y="26" width="7" height="7" transform="rotate(0,239.5,29.5)"/><rect x="194" y="33" width="7" height="7" transform="rotate(0,197.5,36.5)"/><rect x="236" y="33" width="7" height="7" transform="rotate(0,239.5,36.5)"/><rect x="194" y="40" width="7" height="7" transform="rotate(0,197.5,43.5)"/><rect x="236" y="40" width="7" height="7" transform="rotate(0,239.5,43.5)"/><rect x="194" y="47" width="7" height="7" transform="rotate(0,197.5,50.5)"/><rect x="236" y="47" width="7" height="7" transform="rotate(0,239.5,50.5)"/><rect x="194" y="54" width="7" height="7" transform="rotate(0,197.5,57.5)"/><rect x="201" y="54" width="7" height="7" transform="rotate(0,204.5,57.5)"/><rect x="208" y="54" width="7" height="7" transform="rotate(0,211.5,57.5)"/><rect x="215" y="54" width="7" height="7" transform="rotate(0,218.5,57.5)"/><rect x="222" y="54" width="7" height="7" transform="rotate(0,225.5,57.5)"/><rect x="229" y="54" width="7" height="7" transform="rotate(0,232.5,57.5)"/><rect x="236" y="54" width="7" height="7" transform="rotate(0,239.5,57.5)"/><rect x="208" y="26" width="7" height="7" transform="rotate(0,211.5,29.5)"/><rect x="215" y="26" width="7" height="7" transform="rotate(0,218.5,29.5)"/><rect x="222" y="26" width="7" height="7" transform="rotate(0,225.5,29.5)"/><rect x="208" y="33" width="7" height="7" transform="rotate(0,211.5,36.5)"/><rect x="215" y="33" width="7" height="7" transform="rotate(0,218.5,36.5)"/><rect x="222" y="33" width="7" height="7" transform="rotate(0,225.5,36.5)"/><rect x="208" y="40" width="7" height="7" transform="rotate(0,211.5,43.5)"/><rect x="215" y="40" width="7" height="7" transform="rotate(0,218.5,43.5)"/><rect x="222" y="40" width="7" height="7" transform="rotate(0,225.5,43.5)"/><rect x="12" y="194" width="7" height="7" transform="rotate(0,15.5,197.5)"/><rect x="19" y="194" width="7" height="7" transform="rotate(0,22.5,197.5)"/><rect x="26" y="194" width="7" height="7" transform="rotate(0,29.5,197.5)"/><rect x="33" y="194" width="7" height="7" transform="rotate(0,36.5,197.5)"/><rect x="40" y="194" width="7" height="7" transform="rotate(0,43.5,197.5)"/><rect x="47" y="194" width="7" height="7" transform="rotate(0,50.5,197.5)"/><rect x="54" y="194" width="7" height="7" transform="rotate(0,57.5,197.5)"/><rect x="12" y="201" width="7" height="7" transform="rotate(0,15.5,204.5)"/><rect x="54" y="201" width="7" height="7" transform="rotate(0,57.5,204.5)"/><rect x="12" y="208" width="7" height="7" transform="rotate(0,15.5,211.5)"/><rect x="54" y="208" width="7" height="7" transform="rotate(0,57.5,211.5)"/><rect x="12" y="215" width="7" height="7" transform="rotate(0,15.5,218.5)"/><rect x="54" y="215" width="7" height="7" transform="rotate(0,57.5,218.5)"/><rect x="12" y="222" width="7" height="7" transform="rotate(0,15.5,225.5)"/><rect x="54" y="222" width="7" height="7" transform="rotate(0,57.5,225.5)"/><rect x="12" y="229" width="7" height="7" transform="rotate(0,15.5,232.5)"/><rect x="54" y="229" width="7" height="7" transform="rotate(0,57.5,232.5)"/><rect x="12" y="236" width="7" height="7" transform="rotate(0,15.5,239.5)"/><rect x="19" y="236" width="7" height="7" transform="rotate(0,22.5,239.5)"/><rect x="26" y="236" width="7" height="7" transform="rotate(0,29.5,239.5)"/><rect x="33" y="236" width="7" height="7" transform="rotate(0,36.5,239.5)"/><rect x="40" y="236" width="7" height="7" transform="rotate(0,43.5,239.5)"/><rect x="47" y="236" width="7" height="7" transform="rotate(0,50.5,239.5)"/><rect x="54" y="236" width="7" height="7" transform="rotate(0,57.5,239.5)"/><rect x="26" y="208" width="7" height="7" transform="rotate(0,29.5,211.5)"/><rect x="33" y="208" width="7" height="7" transform="rotate(0,36.5,211.5)"/><rect x="40" y="208" width="7" height="7" transform="rotate(0,43.5,211.5)"/><rect x="26" y="215" width="7" height="7" transform="rotate(0,29.5,218.5)"/><rect x="33" y="215" width="7" height="7" transform="rotate(0,36.5,218.5)"/><rect x="40" y="215" width="7" height="7" transform="rotate(0,43.5,218.5)"/><rect x="26" y="222" width="7" height="7" transform="rotate(0,29.5,225.5)"/><rect x="33" y="222" width="7" height="7" transform="rotate(0,36.5,225.5)"/><rect x="40" y="222" width="7" height="7" transform="rotate(0,43.5,225.5)"/></clipPath></defs><rect x="0" y="0" height="256" width="256" clip-path="url('#clip-path-background-color-0')" fill="#ffffff"/><rect x="0" y="0" height="256" width="256" clip-path="url('#clip-path-dot-color-0')" fill="#000000"/></svg>