<svg xmlns="http://www.w3.org/2000/svg" width="32" height="32" fill="none" viewBox="0 0 32 32" id="camera">
  <g filter="url(#filter0_i_18_20289)">
    <path fill="url(#paint0_linear_18_20289)" d="M21.0625 11.6313C21.0625 11.2999 21.3311 11.0312 21.6625 11.0312H26.3609C26.6923 11.0312 26.9609 11.2999 26.9609 11.6313V12.7188H21.0625V11.6313Z"></path>
    <path fill="url(#paint1_radial_18_20289)" d="M21.0625 11.6313C21.0625 11.2999 21.3311 11.0312 21.6625 11.0312H26.3609C26.6923 11.0312 26.9609 11.2999 26.9609 11.6313V12.7188H21.0625V11.6313Z"></path>
  </g>
  <g filter="url(#filter1_i_18_20289)">
    <path fill="url(#paint2_linear_18_20289)" d="M5.07812 11.5812C5.07812 11.2775 5.32437 11.0312 5.62813 11.0312H8.49688C8.80063 11.0312 9.04688 11.2775 9.04688 11.5813V12.7188H5.07812V11.5812Z"></path>
    <path fill="url(#paint3_radial_18_20289)" d="M5.07812 11.5812C5.07812 11.2775 5.32437 11.0312 5.62813 11.0312H8.49688C8.80063 11.0312 9.04688 11.2775 9.04688 11.5813V12.7188H5.07812V11.5812Z"></path>
  </g>
  <path fill="url(#paint4_linear_18_20289)" d="M2.03125 28.1412C2.03125 29.116 2.82151 29.9062 3.79634 29.9062H28.2037C29.1785 29.9062 29.9688 29.116 29.9688 28.1412C29.9688 28.1063 29.9405 28.0781 29.9057 28.0781H2.09429C2.05947 28.0781 2.03125 28.1063 2.03125 28.1412Z"></path>
  <path fill="url(#paint5_linear_18_20289)" d="M2.03125 28.1412C2.03125 29.116 2.82151 29.9062 3.79634 29.9062H28.2037C29.1785 29.9062 29.9688 29.116 29.9688 28.1412C29.9688 28.1063 29.9405 28.0781 29.9057 28.0781H2.09429C2.05947 28.0781 2.03125 28.1063 2.03125 28.1412Z"></path>
  <path fill="url(#paint6_linear_18_20289)" d="M2.03125 28.1412C2.03125 29.116 2.82151 29.9062 3.79634 29.9062H28.2037C29.1785 29.9062 29.9688 29.116 29.9688 28.1412C29.9688 28.1063 29.9405 28.0781 29.9057 28.0781H2.09429C2.05947 28.0781 2.03125 28.1063 2.03125 28.1412Z"></path>
  <path fill="url(#paint7_radial_18_20289)" d="M2.03125 28.1412C2.03125 29.116 2.82151 29.9062 3.79634 29.9062H28.2037C29.1785 29.9062 29.9688 29.116 29.9688 28.1412C29.9688 28.1063 29.9405 28.0781 29.9057 28.0781H2.09429C2.05947 28.0781 2.03125 28.1063 2.03125 28.1412Z"></path>
  <path fill="url(#paint8_radial_18_20289)" d="M2.03125 28.1412C2.03125 29.116 2.82151 29.9062 3.79634 29.9062H28.2037C29.1785 29.9062 29.9688 29.116 29.9688 28.1412C29.9688 28.1063 29.9405 28.0781 29.9057 28.0781H2.09429C2.05947 28.0781 2.03125 28.1063 2.03125 28.1412Z"></path>
  <path fill="url(#paint9_linear_18_20289)" d="M2.03125 16.1875C2.03125 16.0494 2.14318 15.9375 2.28125 15.9375H29.7188C29.8568 15.9375 29.9688 16.0494 29.9688 16.1875V27.8281C29.9688 27.9662 29.8568 28.0781 29.7188 28.0781H2.28125C2.14318 28.0781 2.03125 27.9662 2.03125 27.8281V16.1875Z"></path>
  <path fill="url(#paint10_linear_18_20289)" d="M2.03125 16.1875C2.03125 16.0494 2.14318 15.9375 2.28125 15.9375H29.7188C29.8568 15.9375 29.9688 16.0494 29.9688 16.1875V27.8281C29.9688 27.9662 29.8568 28.0781 29.7188 28.0781H2.28125C2.14318 28.0781 2.03125 27.9662 2.03125 27.8281V16.1875Z"></path>
  <path fill="url(#paint11_linear_18_20289)" d="M2.03125 16.1875C2.03125 16.0494 2.14318 15.9375 2.28125 15.9375H29.7188C29.8568 15.9375 29.9688 16.0494 29.9688 16.1875V27.8281C29.9688 27.9662 29.8568 28.0781 29.7188 28.0781H2.28125C2.14318 28.0781 2.03125 27.9662 2.03125 27.8281V16.1875Z"></path>
  <path fill="url(#paint12_linear_18_20289)" d="M2.03125 16.1875C2.03125 16.0494 2.14318 15.9375 2.28125 15.9375H29.7188C29.8568 15.9375 29.9688 16.0494 29.9688 16.1875V27.8281C29.9688 27.9662 29.8568 28.0781 29.7188 28.0781H2.28125C2.14318 28.0781 2.03125 27.9662 2.03125 27.8281V16.1875Z"></path>
  <path fill="url(#paint13_linear_18_20289)" d="M2.03125 16.1875C2.03125 16.0494 2.14318 15.9375 2.28125 15.9375H29.7188C29.8568 15.9375 29.9688 16.0494 29.9688 16.1875V27.8281C29.9688 27.9662 29.8568 28.0781 29.7188 28.0781H2.28125C2.14318 28.0781 2.03125 27.9662 2.03125 27.8281V16.1875Z"></path>
  <path fill="url(#paint14_linear_18_20289)" d="M2.03125 16.1875C2.03125 16.0494 2.14318 15.9375 2.28125 15.9375H29.7188C29.8568 15.9375 29.9688 16.0494 29.9688 16.1875V27.8281C29.9688 27.9662 29.8568 28.0781 29.7188 28.0781H2.28125C2.14318 28.0781 2.03125 27.9662 2.03125 27.8281V16.1875Z"></path>
  <path fill="url(#paint15_radial_18_20289)" d="M2.03125 16.1875C2.03125 16.0494 2.14318 15.9375 2.28125 15.9375H29.7188C29.8568 15.9375 29.9688 16.0494 29.9688 16.1875V27.8281C29.9688 27.9662 29.8568 28.0781 29.7188 28.0781H2.28125C2.14318 28.0781 2.03125 27.9662 2.03125 27.8281V16.1875Z"></path>
  <g filter="url(#filter2_f_18_20289)">
    <rect width=".469" height="11.5" x="29.016" y="16.258" fill="#8D8D92"></rect>
  </g>
  <g filter="url(#filter3_f_18_20289)">
    <path fill="#4E474A" d="M9.28233 15.7253C9.08087 16.0272 8.89143 16.3619 8.71623 16.7332L8.70531 16.7328C8.52544 17.1205 8.13271 17.3894 7.67717 17.3894C7.22173 17.3894 6.82906 17.1206 6.64912 16.7331L6.64592 16.7332C6.47072 16.3619 6.28128 16.0272 6.07983 15.7253H9.28233Z"></path>
  </g>
  <g filter="url(#filter4_i_18_20289)">
    <path fill="#DAD4E6" d="M2.03125 14.0234C2.03125 12.9189 2.92668 12.0234 4.03125 12.0234H27.9688C29.0733 12.0234 29.9688 12.9189 29.9688 14.0234V15.6875C29.9688 15.8256 29.8568 15.9375 29.7188 15.9375H2.28125C2.14318 15.9375 2.03125 15.8256 2.03125 15.6875V14.0234Z"></path>
    <path fill="url(#paint16_linear_18_20289)" d="M2.03125 14.0234C2.03125 12.9189 2.92668 12.0234 4.03125 12.0234H27.9688C29.0733 12.0234 29.9688 12.9189 29.9688 14.0234V15.6875C29.9688 15.8256 29.8568 15.9375 29.7188 15.9375H2.28125C2.14318 15.9375 2.03125 15.8256 2.03125 15.6875V14.0234Z"></path>
    <path fill="url(#paint17_linear_18_20289)" d="M2.03125 14.0234C2.03125 12.9189 2.92668 12.0234 4.03125 12.0234H27.9688C29.0733 12.0234 29.9688 12.9189 29.9688 14.0234V15.6875C29.9688 15.8256 29.8568 15.9375 29.7188 15.9375H2.28125C2.14318 15.9375 2.03125 15.8256 2.03125 15.6875V14.0234Z"></path>
    <path fill="url(#paint18_linear_18_20289)" d="M2.03125 14.0234C2.03125 12.9189 2.92668 12.0234 4.03125 12.0234H27.9688C29.0733 12.0234 29.9688 12.9189 29.9688 14.0234V15.6875C29.9688 15.8256 29.8568 15.9375 29.7188 15.9375H2.28125C2.14318 15.9375 2.03125 15.8256 2.03125 15.6875V14.0234Z"></path>
    <path fill="url(#paint19_radial_18_20289)" d="M2.03125 14.0234C2.03125 12.9189 2.92668 12.0234 4.03125 12.0234H27.9688C29.0733 12.0234 29.9688 12.9189 29.9688 14.0234V15.6875C29.9688 15.8256 29.8568 15.9375 29.7188 15.9375H2.28125C2.14318 15.9375 2.03125 15.8256 2.03125 15.6875V14.0234Z"></path>
    <path fill="url(#paint20_linear_18_20289)" d="M2.03125 14.0234C2.03125 12.9189 2.92668 12.0234 4.03125 12.0234H27.9688C29.0733 12.0234 29.9688 12.9189 29.9688 14.0234V15.6875C29.9688 15.8256 29.8568 15.9375 29.7188 15.9375H2.28125C2.14318 15.9375 2.03125 15.8256 2.03125 15.6875V14.0234Z"></path>
  </g>
  <g filter="url(#filter5_iiii_18_20289)">
    <circle cx="16" cy="21.977" r="7.016" fill="url(#paint21_radial_18_20289)"></circle>
  </g>
  <g filter="url(#filter6_f_18_20289)">
    <circle cx="16" cy="21.977" r="4.969" stroke="url(#paint22_linear_18_20289)" stroke-width=".3"></circle>
    <circle cx="16" cy="21.977" r="4.969" stroke="url(#paint23_linear_18_20289)" stroke-width=".3"></circle>
  </g>
  <circle cx="16" cy="21.977" r="4.969" fill="url(#paint24_radial_18_20289)"></circle>
  <circle cx="16" cy="21.977" r="4.969" fill="url(#paint25_linear_18_20289)"></circle>
  <g filter="url(#filter7_f_18_20289)">
    <circle cx="16" cy="21.977" r="4.352" fill="url(#paint26_radial_18_20289)"></circle>
    <circle cx="16" cy="21.977" r="4.352" fill="url(#paint27_radial_18_20289)"></circle>
  </g>
  <circle cx="16" cy="21.977" r="2.453" fill="url(#paint28_linear_18_20289)"></circle>
  <circle cx="16" cy="21.977" r="2.453" fill="url(#paint29_radial_18_20289)"></circle>
  <circle cx="16" cy="21.977" r="2.453" fill="url(#paint30_radial_18_20289)"></circle>
  <ellipse cx="18.036" cy="19.985" fill="url(#paint31_linear_18_20289)" rx=".837" ry="1.042" transform="rotate(-34.974 18.036 19.985)"></ellipse>
  <g filter="url(#filter8_f_18_20289)">
    <path fill="#A99A99" d="M6.125 15.7812C5.3965 14.6897 4.46574 14.1843 3.52929 13.7797C3.09991 13.6187 2.95369 13.4789 2.95369 12.9933C2.95369 12.8904 2.92798 12.6501 2.95369 12.5553C3.28752 12.3054 3.7415 12.298 4.19061 12.298L12.4438 12.0234C12.5258 12.1249 12.4438 12.1118 12.4438 12.298C12.4438 12.7609 12.1523 12.9104 11.7544 13.0862L11.7542 13.0885C10.7854 13.4965 9.95074 14.5276 9.20312 15.7812H6.125Z"></path>
  </g>
  <g filter="url(#filter9_i_18_20289)">
    <path fill="url(#paint32_radial_18_20289)" d="M8.10156 7.00781C8.5571 7.00781 8.94983 7.27669 9.1297 7.66439L9.14062 7.66406C9.96094 9.40234 11.0938 10.3398 12.3086 10.8516L12.3087 10.8539C12.7067 11.0296 12.9844 11.4277 12.9844 11.8906C12.9844 12.3536 12.7067 12.7517 12.3087 12.9274L12.3086 12.9297C11.0938 13.4414 9.96094 14.3789 9.14062 16.1172C9.00257 16.4097 8.67969 16.7734 8.10156 16.7734C7.64612 16.7734 7.25345 16.5047 7.07352 16.1171L7.07031 16.1172C6.26157 14.4034 5.14914 13.468 3.95374 12.9516C3.52435 12.7905 3.21875 12.3763 3.21875 11.8906C3.21875 11.405 3.52435 10.9907 3.95374 10.8296C5.14914 10.3132 6.26157 9.37784 7.07031 7.66406L7.07352 7.66416C7.25345 7.27658 7.64612 7.00781 8.10156 7.00781Z"></path>
    <path fill="url(#paint33_radial_18_20289)" d="M8.10156 7.00781C8.5571 7.00781 8.94983 7.27669 9.1297 7.66439L9.14062 7.66406C9.96094 9.40234 11.0938 10.3398 12.3086 10.8516L12.3087 10.8539C12.7067 11.0296 12.9844 11.4277 12.9844 11.8906C12.9844 12.3536 12.7067 12.7517 12.3087 12.9274L12.3086 12.9297C11.0938 13.4414 9.96094 14.3789 9.14062 16.1172C9.00257 16.4097 8.67969 16.7734 8.10156 16.7734C7.64612 16.7734 7.25345 16.5047 7.07352 16.1171L7.07031 16.1172C6.26157 14.4034 5.14914 13.468 3.95374 12.9516C3.52435 12.7905 3.21875 12.3763 3.21875 11.8906C3.21875 11.405 3.52435 10.9907 3.95374 10.8296C5.14914 10.3132 6.26157 9.37784 7.07031 7.66406L7.07352 7.66416C7.25345 7.27658 7.64612 7.00781 8.10156 7.00781Z"></path>
  </g>
  <g filter="url(#filter10_f_18_20289)">
    <path fill="url(#paint34_radial_18_20289)" d="M8.10156 8.34375C8.43246 8.34375 8.71774 8.53906 8.8484 8.82069L8.85634 8.82045C9.45221 10.0831 10.2751 10.7641 11.1576 11.1359L11.1577 11.1375C11.4467 11.2652 11.6484 11.5543 11.6484 11.8906C11.6484 12.2269 11.4467 12.5161 11.1577 12.6437L11.1576 12.6454C10.2751 13.0171 9.45221 13.6981 8.85634 14.9608L8.8484 14.9606C8.71774 15.2422 8.43246 15.4375 8.10156 15.4375C7.77073 15.4375 7.48549 15.2423 7.35479 14.9607L7.35246 14.9608C6.76499 13.7159 5.95692 13.0364 5.08858 12.6613C4.77668 12.5443 4.55469 12.2434 4.55469 11.8906C4.55469 11.5378 4.77668 11.2369 5.08858 11.1199C5.95692 10.7448 6.76499 10.0653 7.35246 8.82045L7.35479 8.82052C7.48549 8.53898 7.77073 8.34375 8.10156 8.34375Z"></path>
  </g>
  <defs>
    <linearGradient id="paint0_linear_18_20289" x1="21.406" x2="27.438" y1="11.875" y2="11.875" gradientUnits="userSpaceOnUse">
      <stop offset=".197" stop-color="#949597"></stop>
      <stop offset=".624" stop-color="#C1C2C4"></stop>
    </linearGradient>
    <linearGradient id="paint2_linear_18_20289" x1="5.309" x2="9.368" y1="11.875" y2="11.875" gradientUnits="userSpaceOnUse">
      <stop offset=".197" stop-color="#949597"></stop>
      <stop offset=".624" stop-color="#C1C2C4"></stop>
    </linearGradient>
    <linearGradient id="paint4_linear_18_20289" x1="16" x2="16" y1="28.078" y2="29.906" gradientUnits="userSpaceOnUse">
      <stop stop-color="#CFC6DE"></stop>
      <stop offset="1" stop-color="#C3B4D7"></stop>
    </linearGradient>
    <linearGradient id="paint5_linear_18_20289" x1="17.375" x2="17.375" y1="29.906" y2="28.5" gradientUnits="userSpaceOnUse">
      <stop stop-color="#AC91C9"></stop>
      <stop offset="1" stop-color="#C2B3D6" stop-opacity="0"></stop>
    </linearGradient>
    <linearGradient id="paint6_linear_18_20289" x1="16" x2="16" y1="28.078" y2="28.594" gradientUnits="userSpaceOnUse">
      <stop stop-color="#CFCBD7"></stop>
      <stop offset="1" stop-color="#CFCBD7" stop-opacity="0"></stop>
    </linearGradient>
    <linearGradient id="paint9_linear_18_20289" x1="20.281" x2="29.281" y1="22.008" y2="22.008" gradientUnits="userSpaceOnUse">
      <stop stop-color="#66636F"></stop>
      <stop offset="1" stop-color="#6B6873"></stop>
    </linearGradient>
    <linearGradient id="paint10_linear_18_20289" x1="2.031" x2="4.719" y1="23.688" y2="23.719" gradientUnits="userSpaceOnUse">
      <stop offset=".342" stop-color="#5E5C64"></stop>
      <stop offset="1" stop-color="#5E5C64" stop-opacity="0"></stop>
    </linearGradient>
    <linearGradient id="paint11_linear_18_20289" x1="1.688" x2="2.844" y1="22.188" y2="22.188" gradientUnits="userSpaceOnUse">
      <stop stop-color="#8F8F91"></stop>
      <stop offset="1" stop-color="#6D6C71" stop-opacity="0"></stop>
    </linearGradient>
    <linearGradient id="paint12_linear_18_20289" x1="16" x2="16" y1="15.938" y2="16.688" gradientUnits="userSpaceOnUse">
      <stop stop-color="#706F76"></stop>
      <stop offset="1" stop-color="#706F76" stop-opacity="0"></stop>
    </linearGradient>
    <linearGradient id="paint13_linear_18_20289" x1="16" x2="16" y1="15.938" y2="16.266" gradientUnits="userSpaceOnUse">
      <stop stop-color="#5F5E65"></stop>
      <stop offset="1" stop-color="#5F5E65" stop-opacity="0"></stop>
    </linearGradient>
    <linearGradient id="paint14_linear_18_20289" x1="19.313" x2="19.313" y1="28.078" y2="27.469" gradientUnits="userSpaceOnUse">
      <stop stop-color="#5C536A"></stop>
      <stop offset="1" stop-color="#5C536A" stop-opacity="0"></stop>
    </linearGradient>
    <linearGradient id="paint16_linear_18_20289" x1="16" x2="16" y1="12.023" y2="13.656" gradientUnits="userSpaceOnUse">
      <stop stop-color="#D8D8DC"></stop>
      <stop offset="1" stop-color="#D8D8DC" stop-opacity="0"></stop>
    </linearGradient>
    <linearGradient id="paint17_linear_18_20289" x1="2.031" x2="3.594" y1="15.344" y2="15.344" gradientUnits="userSpaceOnUse">
      <stop offset=".22" stop-color="#C6C3CC"></stop>
      <stop offset="1" stop-color="#C6C3CC" stop-opacity="0"></stop>
    </linearGradient>
    <linearGradient id="paint18_linear_18_20289" x1="29.969" x2="27.406" y1="15.594" y2="15.594" gradientUnits="userSpaceOnUse">
      <stop offset=".15" stop-color="#F9F7FE"></stop>
      <stop offset="1" stop-color="#D3CDDD" stop-opacity="0"></stop>
    </linearGradient>
    <linearGradient id="paint20_linear_18_20289" x1="17.625" x2="17.625" y1="15.938" y2="15.594" gradientUnits="userSpaceOnUse">
      <stop stop-color="#B6ADC6"></stop>
      <stop offset="1" stop-color="#B6ADC6" stop-opacity="0"></stop>
    </linearGradient>
    <linearGradient id="paint22_linear_18_20289" x1="19.281" x2="16" y1="16.781" y2="26.945" gradientUnits="userSpaceOnUse">
      <stop stop-color="#6A6375"></stop>
      <stop offset="1" stop-color="#6A6375" stop-opacity="0"></stop>
    </linearGradient>
    <linearGradient id="paint23_linear_18_20289" x1="12.844" x2="14.656" y1="25.813" y2="23.344" gradientUnits="userSpaceOnUse">
      <stop offset=".363" stop-color="#B7B6BD"></stop>
      <stop offset="1" stop-color="#B7B6BD" stop-opacity="0"></stop>
    </linearGradient>
    <linearGradient id="paint25_linear_18_20289" x1="19.438" x2="12.5" y1="17.008" y2="25.875" gradientUnits="userSpaceOnUse">
      <stop stop-color="#2C2634"></stop>
      <stop offset=".599" stop-color="#40344C"></stop>
    </linearGradient>
    <linearGradient id="paint28_linear_18_20289" x1="17.281" x2="14.063" y1="24.25" y2="19.969" gradientUnits="userSpaceOnUse">
      <stop stop-color="#463755"></stop>
      <stop offset="1" stop-color="#473F51"></stop>
    </linearGradient>
    <linearGradient id="paint31_linear_18_20289" x1="18.475" x2="17.739" y1="19.357" y2="21.054" gradientUnits="userSpaceOnUse">
      <stop offset=".051" stop-color="#F3F2F4"></stop>
      <stop offset="1" stop-color="#F3F2F4" stop-opacity="0"></stop>
    </linearGradient>
    <radialGradient id="paint1_radial_18_20289" cx="0" cy="0" r="1" gradientTransform="matrix(0 .21875 -1.6875 0 25.438 11.469)" gradientUnits="userSpaceOnUse">
      <stop stop-color="#CFD0D2"></stop>
      <stop offset="1" stop-color="#CFD0D2" stop-opacity="0"></stop>
    </radialGradient>
    <radialGradient id="paint3_radial_18_20289" cx="0" cy="0" r="1" gradientTransform="matrix(0 .21875 -1.13543 0 8.022 11.469)" gradientUnits="userSpaceOnUse">
      <stop stop-color="#CFD0D2"></stop>
      <stop offset="1" stop-color="#CFD0D2" stop-opacity="0"></stop>
    </radialGradient>
    <radialGradient id="paint7_radial_18_20289" cx="0" cy="0" r="1" gradientTransform="matrix(0 1.93749 -1.25528 0 29.281 27.688)" gradientUnits="userSpaceOnUse">
      <stop offset=".242" stop-color="#F7F4FE"></stop>
      <stop offset="1" stop-color="#C8BCDB" stop-opacity="0"></stop>
    </radialGradient>
    <radialGradient id="paint8_radial_18_20289" cx="0" cy="0" r="1" gradientTransform="matrix(0 4.59375 -6.48312 0 14.25 25.313)" gradientUnits="userSpaceOnUse">
      <stop offset=".645" stop-color="#9884AF"></stop>
      <stop offset="1" stop-color="#9884AF" stop-opacity="0"></stop>
    </radialGradient>
    <radialGradient id="paint15_radial_18_20289" cx="0" cy="0" r="1" gradientTransform="rotate(53.678 -16.81 25.417)scale(8.49414 8.46172)" gradientUnits="userSpaceOnUse">
      <stop offset=".597" stop-color="#4B4357"></stop>
      <stop offset="1" stop-color="#524C5D" stop-opacity="0"></stop>
    </radialGradient>
    <radialGradient id="paint19_radial_18_20289" cx="0" cy="0" r="1" gradientTransform="rotate(135.463 12.367 12.527)scale(1.70982 2.07599)" gradientUnits="userSpaceOnUse">
      <stop offset=".15" stop-color="#F9F7FE"></stop>
      <stop offset="1" stop-color="#F9F7FE" stop-opacity="0"></stop>
    </radialGradient>
    <radialGradient id="paint21_radial_18_20289" cx="0" cy="0" r="1" gradientTransform="rotate(143.867 7.624 12.825)scale(11.1822)" gradientUnits="userSpaceOnUse">
      <stop stop-color="#A6A2AE"></stop>
      <stop offset="1" stop-color="#A6A2AF"></stop>
    </radialGradient>
    <radialGradient id="paint24_radial_18_20289" cx="0" cy="0" r="1" gradientTransform="rotate(143.911 5.995 13.377)scale(6.41935 5.9978)" gradientUnits="userSpaceOnUse">
      <stop offset=".068" stop-color="#67616D"></stop>
      <stop offset="1" stop-color="#4D3E5C"></stop>
    </radialGradient>
    <radialGradient id="paint26_radial_18_20289" cx="0" cy="0" r="1" gradientTransform="matrix(-4.54314 3.31158 -3.09411 -4.2448 18.381 20.82)" gradientUnits="userSpaceOnUse">
      <stop offset=".068" stop-color="#67616D"></stop>
      <stop offset="1" stop-color="#4D3E5C"></stop>
    </radialGradient>
    <radialGradient id="paint27_radial_18_20289" cx="0" cy="0" r="1" gradientTransform="rotate(147.397 6.24 12.765)scale(7.30776 7.07082)" gradientUnits="userSpaceOnUse">
      <stop offset=".78" stop-color="#554863" stop-opacity="0"></stop>
      <stop offset=".985" stop-color="#554863"></stop>
    </radialGradient>
    <radialGradient id="paint29_radial_18_20289" cx="0" cy="0" r="1" gradientTransform="rotate(-48.614 33.548 -4.007)scale(4.20681 2.88478)" gradientUnits="userSpaceOnUse">
      <stop stop-color="#544E5C"></stop>
      <stop offset="1" stop-color="#544E5C" stop-opacity="0"></stop>
    </radialGradient>
    <radialGradient id="paint30_radial_18_20289" cx="0" cy="0" r="1" gradientTransform="rotate(146.088 6.192 12.766)scale(2.24049)" gradientUnits="userSpaceOnUse">
      <stop stop-color="#544E5C"></stop>
      <stop offset="1" stop-color="#544E5C" stop-opacity="0"></stop>
    </radialGradient>
    <radialGradient id="paint32_radial_18_20289" cx="0" cy="0" r="1" gradientTransform="matrix(-2.75002 2.24998 -3.93746 -4.81253 11.188 8.813)" gradientUnits="userSpaceOnUse">
      <stop stop-color="#FFFF9C"></stop>
      <stop offset="1" stop-color="#EAC73C"></stop>
    </radialGradient>
    <radialGradient id="paint33_radial_18_20289" cx="0" cy="0" r="1" gradientTransform="matrix(-1.0625 1 -1.81617 -1.9297 10.469 8.938)" gradientUnits="userSpaceOnUse">
      <stop offset=".172" stop-color="#FFFCA0"></stop>
      <stop offset="1" stop-color="#FFFCA0" stop-opacity="0"></stop>
    </radialGradient>
    <radialGradient id="paint34_radial_18_20289" cx="0" cy="0" r="1" gradientTransform="rotate(90 -1.895 9.996)scale(6.04688)" gradientUnits="userSpaceOnUse">
      <stop offset=".127" stop-color="#FFEDD9"></stop>
      <stop offset="1" stop-color="#FFEDD9" stop-opacity="0"></stop>
    </radialGradient>
    <filter id="filter0_i_18_20289" width="5.898" height="1.837" x="21.063" y="11.031" color-interpolation-filters="sRGB" filterUnits="userSpaceOnUse">
      <feFlood flood-opacity="0" result="BackgroundImageFix"></feFlood>
      <feBlend in="SourceGraphic" in2="BackgroundImageFix" result="shape"></feBlend>
      <feColorMatrix in="SourceAlpha" result="hardAlpha" values="0 0 0 0 0 0 0 0 0 0 0 0 0 0 0 0 0 0 127 0"></feColorMatrix>
      <feOffset dy=".15"></feOffset>
      <feGaussianBlur stdDeviation=".2"></feGaussianBlur>
      <feComposite in2="hardAlpha" k2="-1" k3="1" operator="arithmetic"></feComposite>
      <feColorMatrix values="0 0 0 0 0.701961 0 0 0 0 0.709804 0 0 0 0 0.713726 0 0 0 1 0"></feColorMatrix>
      <feBlend in2="shape" result="effect1_innerShadow_18_20289"></feBlend>
    </filter>
    <filter id="filter1_i_18_20289" width="3.969" height="1.837" x="5.078" y="11.031" color-interpolation-filters="sRGB" filterUnits="userSpaceOnUse">
      <feFlood flood-opacity="0" result="BackgroundImageFix"></feFlood>
      <feBlend in="SourceGraphic" in2="BackgroundImageFix" result="shape"></feBlend>
      <feColorMatrix in="SourceAlpha" result="hardAlpha" values="0 0 0 0 0 0 0 0 0 0 0 0 0 0 0 0 0 0 127 0"></feColorMatrix>
      <feOffset dy=".15"></feOffset>
      <feGaussianBlur stdDeviation=".2"></feGaussianBlur>
      <feComposite in2="hardAlpha" k2="-1" k3="1" operator="arithmetic"></feComposite>
      <feColorMatrix values="0 0 0 0 0.701961 0 0 0 0 0.709804 0 0 0 0 0.713726 0 0 0 1 0"></feColorMatrix>
      <feBlend in2="shape" result="effect1_innerShadow_18_20289"></feBlend>
    </filter>
    <filter id="filter2_f_18_20289" width="1.769" height="12.8" x="28.366" y="15.608" color-interpolation-filters="sRGB" filterUnits="userSpaceOnUse">
      <feFlood flood-opacity="0" result="BackgroundImageFix"></feFlood>
      <feBlend in="SourceGraphic" in2="BackgroundImageFix" result="shape"></feBlend>
      <feGaussianBlur result="effect1_foregroundBlur_18_20289" stdDeviation=".325"></feGaussianBlur>
    </filter>
    <filter id="filter3_f_18_20289" width="4.503" height="2.964" x="5.43" y="15.075" color-interpolation-filters="sRGB" filterUnits="userSpaceOnUse">
      <feFlood flood-opacity="0" result="BackgroundImageFix"></feFlood>
      <feBlend in="SourceGraphic" in2="BackgroundImageFix" result="shape"></feBlend>
      <feGaussianBlur result="effect1_foregroundBlur_18_20289" stdDeviation=".325"></feGaussianBlur>
    </filter>
    <filter id="filter4_i_18_20289" width="27.938" height="4.014" x="2.031" y="12.023" color-interpolation-filters="sRGB" filterUnits="userSpaceOnUse">
      <feFlood flood-opacity="0" result="BackgroundImageFix"></feFlood>
      <feBlend in="SourceGraphic" in2="BackgroundImageFix" result="shape"></feBlend>
      <feColorMatrix in="SourceAlpha" result="hardAlpha" values="0 0 0 0 0 0 0 0 0 0 0 0 0 0 0 0 0 0 127 0"></feColorMatrix>
      <feOffset dy=".1"></feOffset>
      <feGaussianBlur stdDeviation=".15"></feGaussianBlur>
      <feComposite in2="hardAlpha" k2="-1" k3="1" operator="arithmetic"></feComposite>
      <feColorMatrix values="0 0 0 0 0.796078 0 0 0 0 0.8 0 0 0 0 0.803922 0 0 0 1 0"></feColorMatrix>
      <feBlend in2="shape" result="effect1_innerShadow_18_20289"></feBlend>
    </filter>
    <filter id="filter5_iiii_18_20289" width="14.331" height="14.331" x="8.834" y="14.811" color-interpolation-filters="sRGB" filterUnits="userSpaceOnUse">
      <feFlood flood-opacity="0" result="BackgroundImageFix"></feFlood>
      <feBlend in="SourceGraphic" in2="BackgroundImageFix" result="shape"></feBlend>
      <feColorMatrix in="SourceAlpha" result="hardAlpha" values="0 0 0 0 0 0 0 0 0 0 0 0 0 0 0 0 0 0 127 0"></feColorMatrix>
      <feOffset dy="-.15"></feOffset>
      <feGaussianBlur stdDeviation=".075"></feGaussianBlur>
      <feComposite in2="hardAlpha" k2="-1" k3="1" operator="arithmetic"></feComposite>
      <feColorMatrix values="0 0 0 0 0.545098 0 0 0 0 0.529412 0 0 0 0 0.580392 0 0 0 1 0"></feColorMatrix>
      <feBlend in2="shape" result="effect1_innerShadow_18_20289"></feBlend>
      <feColorMatrix in="SourceAlpha" result="hardAlpha" values="0 0 0 0 0 0 0 0 0 0 0 0 0 0 0 0 0 0 127 0"></feColorMatrix>
      <feOffset dx=".15"></feOffset>
      <feGaussianBlur stdDeviation=".075"></feGaussianBlur>
      <feComposite in2="hardAlpha" k2="-1" k3="1" operator="arithmetic"></feComposite>
      <feColorMatrix values="0 0 0 0 0.564706 0 0 0 0 0.54902 0 0 0 0 0.6 0 0 0 1 0"></feColorMatrix>
      <feBlend in2="effect1_innerShadow_18_20289" result="effect2_innerShadow_18_20289"></feBlend>
      <feColorMatrix in="SourceAlpha" result="hardAlpha" values="0 0 0 0 0 0 0 0 0 0 0 0 0 0 0 0 0 0 127 0"></feColorMatrix>
      <feOffset dy=".15"></feOffset>
      <feGaussianBlur stdDeviation=".075"></feGaussianBlur>
      <feComposite in2="hardAlpha" k2="-1" k3="1" operator="arithmetic"></feComposite>
      <feColorMatrix values="0 0 0 0 0.619608 0 0 0 0 0.623529 0 0 0 0 0.631373 0 0 0 1 0"></feColorMatrix>
      <feBlend in2="effect2_innerShadow_18_20289" result="effect3_innerShadow_18_20289"></feBlend>
      <feColorMatrix in="SourceAlpha" result="hardAlpha" values="0 0 0 0 0 0 0 0 0 0 0 0 0 0 0 0 0 0 127 0"></feColorMatrix>
      <feOffset dx="-.15" dy=".1"></feOffset>
      <feGaussianBlur stdDeviation=".125"></feGaussianBlur>
      <feComposite in2="hardAlpha" k2="-1" k3="1" operator="arithmetic"></feComposite>
      <feColorMatrix values="0 0 0 0 0.803922 0 0 0 0 0.803922 0 0 0 0 0.823529 0 0 0 1 0"></feColorMatrix>
      <feBlend in2="effect3_innerShadow_18_20289" result="effect4_innerShadow_18_20289"></feBlend>
    </filter>
    <filter id="filter6_f_18_20289" width="11.037" height="11.037" x="10.481" y="16.458" color-interpolation-filters="sRGB" filterUnits="userSpaceOnUse">
      <feFlood flood-opacity="0" result="BackgroundImageFix"></feFlood>
      <feBlend in="SourceGraphic" in2="BackgroundImageFix" result="shape"></feBlend>
      <feGaussianBlur result="effect1_foregroundBlur_18_20289" stdDeviation=".2"></feGaussianBlur>
    </filter>
    <filter id="filter7_f_18_20289" width="10.203" height="10.203" x="10.898" y="16.875" color-interpolation-filters="sRGB" filterUnits="userSpaceOnUse">
      <feFlood flood-opacity="0" result="BackgroundImageFix"></feFlood>
      <feBlend in="SourceGraphic" in2="BackgroundImageFix" result="shape"></feBlend>
      <feGaussianBlur result="effect1_foregroundBlur_18_20289" stdDeviation=".375"></feGaussianBlur>
    </filter>
    <filter id="filter8_f_18_20289" width="11.038" height="5.258" x="2.192" y="11.273" color-interpolation-filters="sRGB" filterUnits="userSpaceOnUse">
      <feFlood flood-opacity="0" result="BackgroundImageFix"></feFlood>
      <feBlend in="SourceGraphic" in2="BackgroundImageFix" result="shape"></feBlend>
      <feGaussianBlur result="effect1_foregroundBlur_18_20289" stdDeviation=".375"></feGaussianBlur>
    </filter>
    <filter id="filter9_i_18_20289" width="10.016" height="10.016" x="3.219" y="6.758" color-interpolation-filters="sRGB" filterUnits="userSpaceOnUse">
      <feFlood flood-opacity="0" result="BackgroundImageFix"></feFlood>
      <feBlend in="SourceGraphic" in2="BackgroundImageFix" result="shape"></feBlend>
      <feColorMatrix in="SourceAlpha" result="hardAlpha" values="0 0 0 0 0 0 0 0 0 0 0 0 0 0 0 0 0 0 127 0"></feColorMatrix>
      <feOffset dx=".25" dy="-.25"></feOffset>
      <feGaussianBlur stdDeviation=".375"></feGaussianBlur>
      <feComposite in2="hardAlpha" k2="-1" k3="1" operator="arithmetic"></feComposite>
      <feColorMatrix values="0 0 0 0 0.823529 0 0 0 0 0.666667 0 0 0 0 0.254902 0 0 0 1 0"></feColorMatrix>
      <feBlend in2="shape" result="effect1_innerShadow_18_20289"></feBlend>
    </filter>
    <filter id="filter10_f_18_20289" width="10.094" height="10.094" x="3.055" y="6.844" color-interpolation-filters="sRGB" filterUnits="userSpaceOnUse">
      <feFlood flood-opacity="0" result="BackgroundImageFix"></feFlood>
      <feBlend in="SourceGraphic" in2="BackgroundImageFix" result="shape"></feBlend>
      <feGaussianBlur result="effect1_foregroundBlur_18_20289" stdDeviation=".75"></feGaussianBlur>
    </filter>
  </defs>
</svg>
